<svg width="209" height="48" viewBox="0 0 209 48" fill="none" xmlns="http://www.w3.org/2000/svg">
<path d="M94.651 32.9525C92.9384 32.9525 91.3858 32.5834 89.9933 31.8453C88.6168 31.0912 87.5285 30.0562 86.7282 28.7404C85.9439 27.4086 85.5518 25.9084 85.5518 24.2396C85.5518 22.5708 85.9439 21.0786 86.7282 19.7628C87.5285 18.431 88.6168 17.3961 89.9933 16.658C91.3858 15.9038 92.9464 15.5267 94.675 15.5267C96.1315 15.5267 97.444 15.7835 98.6124 16.2969C99.7968 16.8104 100.789 17.5485 101.589 18.5113L99.0926 20.8218C97.9562 19.5061 96.5477 18.8482 94.8671 18.8482C93.8267 18.8482 92.8984 19.0809 92.0821 19.5462C91.2658 19.9955 90.6256 20.6293 90.1614 21.4476C89.7132 22.266 89.4892 23.1966 89.4892 24.2396C89.4892 25.2826 89.7132 26.2132 90.1614 27.0316C90.6256 27.8499 91.2658 28.4917 92.0821 28.9571C92.8984 29.4063 93.8267 29.631 94.8671 29.631C96.5477 29.631 97.9562 28.9651 99.0926 27.6333L101.589 29.9439C100.789 30.9227 99.7968 31.6688 98.6124 32.1823C97.428 32.6957 96.1075 32.9525 94.651 32.9525Z" fill="white"/>
<path d="M111.542 32.9525C109.141 32.9525 107.268 32.2866 105.924 30.9548C104.595 29.623 103.931 27.7215 103.931 25.2505V15.8156H107.821V25.1061C107.821 28.1227 109.069 29.631 111.566 29.631C112.782 29.631 113.711 29.27 114.351 28.5479C114.991 27.8098 115.311 26.6625 115.311 25.1061V15.8156H119.153V25.2505C119.153 27.7215 118.48 29.623 117.136 30.9548C115.807 32.2866 113.943 32.9525 111.542 32.9525Z" fill="white"/>
<path d="M135.336 23.9026C136.297 24.2075 137.049 24.721 137.593 25.443C138.137 26.149 138.41 27.0235 138.41 28.0665C138.41 29.5427 137.833 30.682 136.681 31.4843C135.545 32.2705 133.88 32.6636 131.687 32.6636H122.996V15.8156H131.207C133.256 15.8156 134.824 16.2087 135.913 16.9949C137.017 17.7812 137.569 18.8482 137.569 20.1961C137.569 21.0144 137.369 21.7445 136.969 22.3863C136.585 23.0281 136.041 23.5336 135.336 23.9026ZM126.861 18.7519V22.7233H130.727C131.687 22.7233 132.415 22.5548 132.912 22.2178C133.408 21.8809 133.656 21.3834 133.656 20.7256C133.656 20.0677 133.408 19.5783 132.912 19.2574C132.415 18.9204 131.687 18.7519 130.727 18.7519H126.861ZM131.399 29.7273C132.423 29.7273 133.192 29.5588 133.704 29.2218C134.232 28.8849 134.496 28.3634 134.496 27.6574C134.496 26.2614 133.464 25.5634 131.399 25.5634H126.861V29.7273H131.399Z" fill="white"/>
<path d="M152.422 29.0533H144.619L143.131 32.6636H139.145L146.636 15.8156H150.477L157.992 32.6636H153.911L152.422 29.0533ZM151.198 26.0929L148.533 19.6425L145.868 26.0929H151.198Z" fill="white"/>
<path d="M162.373 18.9926H156.995V15.8156H171.64V18.9926H166.262V32.6636H162.373V18.9926Z" fill="white"/>
<path d="M181.637 32.9525C179.893 32.9525 178.316 32.5754 176.908 31.8212C175.515 31.0671 174.419 30.0321 173.618 28.7164C172.834 27.3846 172.442 25.8923 172.442 24.2396C172.442 22.5869 172.834 21.1026 173.618 19.7869C174.419 18.4551 175.515 17.4121 176.908 16.658C178.316 15.9038 179.893 15.5267 181.637 15.5267C183.382 15.5267 184.95 15.9038 186.343 16.658C187.735 17.4121 188.832 18.4551 189.632 19.7869C190.432 21.1026 190.833 22.5869 190.833 24.2396C190.833 25.8923 190.432 27.3846 189.632 28.7164C188.832 30.0321 187.735 31.0671 186.343 31.8212C184.95 32.5754 183.382 32.9525 181.637 32.9525ZM181.637 29.631C182.63 29.631 183.526 29.4063 184.326 28.9571C185.126 28.4917 185.751 27.8499 186.199 27.0316C186.663 26.2132 186.895 25.2826 186.895 24.2396C186.895 23.1966 186.663 22.266 186.199 21.4476C185.751 20.6293 185.126 19.9955 184.326 19.5462C183.526 19.0809 182.63 18.8482 181.637 18.8482C180.645 18.8482 179.749 19.0809 178.948 19.5462C178.148 19.9955 177.516 20.6293 177.052 21.4476C176.603 22.266 176.379 23.1966 176.379 24.2396C176.379 25.2826 176.603 26.2132 177.052 27.0316C177.516 27.8499 178.148 28.4917 178.948 28.9571C179.749 29.4063 180.645 29.631 181.637 29.631Z" fill="white"/>
<path d="M204.463 32.6636L201.222 27.9702H201.03H197.645V32.6636H193.756V15.8156H201.03C202.519 15.8156 203.807 16.0643 204.896 16.5617C206 17.0591 206.848 17.7651 207.44 18.6797C208.033 19.5943 208.329 20.6774 208.329 21.929C208.329 23.1806 208.025 24.2637 207.416 25.1783C206.824 26.0768 205.976 26.7668 204.871 27.2482L208.641 32.6636H204.463ZM204.391 21.929C204.391 20.9823 204.087 20.2602 203.479 19.7628C202.871 19.2494 201.982 18.9926 200.814 18.9926H197.645V24.8654H200.814C201.982 24.8654 202.871 24.6087 203.479 24.0952C204.087 23.5817 204.391 22.8597 204.391 21.929Z" fill="white"/>
<path d="M0 15.8413H3.8833V32.6334H0V15.8413Z" fill="white"/>
<path d="M11.3413 19.0078H5.97177V15.8413H20.5941V19.0078H15.2246V32.6334H11.3413V19.0078Z" fill="white"/>
<path d="M44.9877 15.8413H48.8764V32.6334H44.9877V15.8413Z" fill="white"/>
<path d="M68.2748 15.8413V32.6334H65.0822L56.7047 22.4382V32.6334H52.8641V15.8413H56.0806L64.4341 26.0365V15.8413H68.2748Z" fill="white"/>
<path fill-rule="evenodd" clip-rule="evenodd" d="M46.6493 8.7113C48.0927 8.7113 49.2631 9.8817 49.2631 11.3252C49.2631 12.7686 48.0927 13.939 46.6493 13.939C45.2058 13.939 44.0354 12.7686 44.0354 11.3252C44.0354 9.8817 45.2058 8.7113 46.6493 8.7113Z" fill="#FF0808"/>
<path fill-rule="evenodd" clip-rule="evenodd" d="M25.9899 21.3861C27.4775 21.3861 28.683 22.5562 28.683 24C28.683 25.4438 27.4775 26.6138 25.9899 26.6138C24.5024 26.6138 23.2969 25.4438 23.2969 24C23.2969 22.5562 24.5024 21.3861 25.9899 21.3861Z" fill="white"/>
<path fill-rule="evenodd" clip-rule="evenodd" d="M56.6373 46C68.7876 46 78.6373 36.1503 78.6373 24C78.6373 11.8497 68.7876 2 56.6373 2C44.4871 2 34.6373 11.8497 34.6373 24C34.6373 36.1503 44.4871 46 56.6373 46ZM56.6373 48C69.8922 48 80.6373 37.2548 80.6373 24C80.6373 10.7452 69.8922 0 56.6373 0C43.3825 0 32.6373 10.7452 32.6373 24C32.6373 37.2548 43.3825 48 56.6373 48Z" fill="white"/>
</svg>
